<?xml version="1.0" encoding="UTF-8" standalone="no"?>
<!-- Created with Inkscape (http://www.inkscape.org/) -->

<svg
   width="210mm"
   height="210mm"
   viewBox="0 0 210 210"
   version="1.1"
   id="svg5"
   inkscape:version="1.1.1 (3bf5ae0d25, 2021-09-20)"
   sodipodi:docname="icon.svg"
   xmlns:inkscape="http://www.inkscape.org/namespaces/inkscape"
   xmlns:sodipodi="http://sodipodi.sourceforge.net/DTD/sodipodi-0.dtd"
   xmlns="http://www.w3.org/2000/svg"
   xmlns:svg="http://www.w3.org/2000/svg">
  <sodipodi:namedview
     id="namedview7"
     pagecolor="#505050"
     bordercolor="#ffffff"
     borderopacity="1"
     inkscape:pageshadow="0"
     inkscape:pageopacity="0"
     inkscape:pagecheckerboard="1"
     inkscape:document-units="mm"
     showgrid="false"
     inkscape:zoom="0.86772068"
     inkscape:cx="668.99408"
     inkscape:cy="323.83693"
     inkscape:window-width="1440"
     inkscape:window-height="890"
     inkscape:window-x="-6"
     inkscape:window-y="-6"
     inkscape:window-maximized="1"
     inkscape:current-layer="g39"
     height="210mm" />
  <defs
     id="defs2" />
  <g
     inkscape:label="Laag 1"
     inkscape:groupmode="layer"
     id="layer1">
    <g
       id="g39">
      <path
         style="fill:#333333;fill-opacity:1;stroke-width:0.315264"
         d="m 134.04246,208.69581 c -6.4741,0.47979 -16.821,-0.17423 -20.93071,-0.15266 -14.957598,0.0785 -72.747546,-0.28385 -84.004406,-0.52669 -11.358349,-0.24502 -19.2662843,-0.27208 -23.0794758,0.14467 -3.5246932,-2.99422 -6.35066017,-6.88401 4.2605578,-5.93027 l 0.586464,-2.06506 c 0.322554,-1.13579 1.586911,-4.95353 2.809679,-8.48389 1.222769,-3.53035 2.223218,-6.68219 2.223218,-7.00409 0,-0.56017 -0.212656,-0.57612 -4.955658,-0.37185 -4.7433816,0.2043 -4.9869165,0.18602 -5.6853628,-0.42673 l -0.729705,-0.6402 v -18.02019 c 0,-14.08309 0.088733,-18.07307 0.4060985,-18.26223 0.2233533,-0.13314 1.137072,-0.31335 2.0304861,-0.40049 l 1.6243898,-0.15841 0.169759,-3.21233 c 0.1745393,-3.30279 0.5444461,-4.43488 1.5355044,-4.69943 0.312884,-0.0835 2.191607,-0.2442 4.17494,-0.35708 l 3.60606,-0.20525 0.211255,-4.14806 c 0.264308,-5.18973 0.263795,-9.18917 -0.0013,-10.12156 -0.198809,-0.69926 -0.265487,-0.71124 -2.788895,-0.50089 -1.421869,0.11853 -4.113836,0.11738 -5.9821501,-0.002 -5.0173675,-0.32204 -7.0944284,-1.28273 -5.5400204,-6.49382 0.4517193,-1.51438 1.7585702,-6.31242 2.9041115,-10.66232 1.1455457,-4.34989 3.100661,-8.310375 3.100661,-8.310375 0.486429,-0.699104 0.602181,-0.712344 7.081843,-0.810258 7.880196,-0.119086 11.123214,0.131708 11.909136,1.045674 0.763495,0.887892 2.36198,5.863949 3.517661,10.950429 0.522461,2.29949 1.389561,5.63938 1.926889,7.42199 1.226775,4.06986 1.252444,5.24644 0.137355,6.29651 l -0.839607,0.79065 -5.617113,-0.21896 -5.617114,-0.21898 -0.230018,2.02265 c -0.12651,1.11245 -0.125276,4.48371 0.0025,7.49166 l 0.232766,5.46901 0.97166,0.18299 c 0.534415,0.10073 2.186528,0.18301 3.671363,0.18301 2.879462,0 4.230121,0.31943 4.877856,1.15361 0.221089,0.28472 0.504821,2.0002 0.630519,3.81215 l 0.228692,3.29439 11.416437,-0.0166 c 14.429301,-0.021 20.636807,-0.32498 21.189979,-1.03738 1.13921,-1.46713 -0.162204,-1.90929 -5.87501,-1.99611 -1.608145,-0.0244 -3.50868,-0.14208 -4.223411,-0.26145 -1.165723,-0.19465 -1.299512,-0.30869 -1.299512,-1.10761 0,-0.71648 0.190547,-0.95141 0.974635,-1.20164 0.592307,-0.18901 5.81744,-0.31194 13.31999,-0.31335 12.615802,-0.002 14.132186,0.12398 14.132186,1.17762 0,1.04641 -1.42504,1.41129 -6.380101,1.6336 l -4.828185,0.21662 v 1.04876 c 0,0.90073 0.137567,1.08725 0.974635,1.32148 0.536048,0.14998 5.564468,0.35161 11.17427,0.44806 l 10.199638,0.17534 -0.248657,-1.95573 c -0.13677,-1.07564 -0.287673,-3.6487 -0.335344,-5.71789 l -0.08666,-3.76218 -1.986004,-1.94762 c -1.092295,-1.07121 -1.995335,-2.06281 -2.006735,-2.20356 -0.0114,-0.14076 -0.06464,-0.87545 -0.118253,-1.63265 -0.05368,-0.75718 -0.419892,-2.19157 -0.813901,-3.18754 -0.708559,-1.79108 -0.709588,-1.81946 -0.09438,-2.60044 1.321708,-1.67787 5.284873,-1.95784 8.871123,-0.62669 0.891906,0.33105 1.664552,0.60192 1.717004,0.60192 0.05246,0 -0.0808,-0.80514 -0.296173,-1.78919 -0.88615,-4.04937 0.78584,-7.51339 4.31895,-8.94802 0.75939,-0.30836 1.38073,-0.70321 1.38073,-0.87745 0,-0.17425 -0.0366,-0.32951 -0.0811,-0.34501 -0.0447,-0.0155 -12.544329,-0.0907 -27.777048,-0.16686 l -27.695835,-0.13864 -6.5e-4,13.70447 c -3.25e-4,12.43442 -0.05314,13.80372 -0.568535,14.77525 -0.412099,0.77682 -0.815288,1.09753 -1.468715,1.16823 -0.775016,0.0838 -0.973096,-0.0656 -1.419681,-1.07077 -0.45941,-1.03411 -0.497602,-2.77045 -0.332648,-15.12318 0.210514,-15.76452 0.264902,-16.15031 2.369083,-16.80425 1.492879,-0.46397 57.352569,-0.18534 59.709859,0.29782 1.70673,0.34982 2.22646,0.63224 1.56988,0.85305 -0.22335,0.0752 -0.4061,0.40858 -0.4061,0.74101 0,0.33245 0.11788,0.53583 0.26197,0.45198 0.31629,-0.18409 2.56892,4.85827 3.12712,6.99989 0.3651,1.4007 0.47871,1.52967 1.3475,1.52967 0.52182,0 1.05046,-0.13369 1.17477,-0.29707 0.1243,-0.1634 0.31399,-0.2142 0.42157,-0.11298 0.10758,0.10127 -0.007,0.3739 -0.25212,0.60575 -0.24621,0.23188 -0.3804,0.6116 -0.29818,0.84385 0.0821,0.23224 0.009,0.34034 -0.16341,0.24018 -0.17209,-0.10009 -0.31288,0.0108 -0.31288,0.24635 0,0.23565 0.0852,0.41979 0.18951,0.40921 0.64251,-0.0653 0.46105,0.21151 -1.03222,1.57409 -1.77839,1.62278 -1.86245,2.33659 -0.16386,1.39171 1.283,-0.7137 5.63945,-1.02281 6.72247,-0.47698 1.07675,0.54266 1.73988,2.25015 1.36733,3.52076 -0.40818,1.39209 -1.90824,3.37971 -3.85557,5.10873 l -1.60845,1.42813 -0.3636,3.61981 c -0.19998,1.99089 -0.47902,4.88381 -0.6201,6.4287 l -0.25649,2.8089 0.8122,0.15897 c 0.4467,0.0875 5.60575,0.11634 11.46454,0.0643 10.58026,-0.0942 12.92946,0.0289 13.65841,0.71522 0.52424,0.49358 0.70276,34.6778 0.18731,35.87026 -0.19479,0.45064 -0.59663,0.90867 -0.89294,1.01783 -0.29634,0.10915 -2.41631,0.18416 -4.71103,0.16668 l -4.17223,-0.0318 0.21376,1.30849 c 0.30207,1.84899 2.66261,10.92624 3.61056,13.88411 l 0.79472,2.47975 c 9.0733,0.15927 21.46745,0.84337 31.32294,-0.38764 1.24199,-0.21942 1.40706,-0.57148 0.71308,-1.52092 -0.24261,-0.33191 -0.61879,-1.11791 -0.83598,-1.74667 -0.70704,-2.04694 -2.78196,-13.782 -3.04349,-17.2129 l -0.11665,-1.52967 -1.71517,-0.16457 c -2.62253,-0.25169 -2.61923,-0.24163 -2.61923,-7.98678 0,-4.22771 0.13165,-6.92981 0.3607,-7.40321 0.53218,-1.0999 1.61916,-1.42472 4.77141,-1.42585 4.77962,-0.002 13.00037,-0.38646 13.41511,-0.62783 0.66425,-0.38659 -0.25514,-3.86319 -1.57315,-5.94875 -1.58061,-2.50107 -4.01988,-5.59967 -5.37908,-6.83305 -1.12052,-1.01681 -1.12797,-1.01856 -2.17282,-0.50974 -3.45314,1.68157 -9.82049,0.14952 -13.03741,-3.13693 -1.71903,-1.75617 -2.7918,-4.01971 -3.55441,-7.49969 -0.82686,-3.7732 -0.82272,-5.77523 0.0134,-6.48779 1.32504,-1.12923 9.85767,-1.16809 13.27166,-0.0605 1.8216,0.591 4.66518,2.42068 5.64446,3.6319 2.19343,2.71288 3.35161,6.97637 2.56593,9.44579 -0.40288,1.26631 -0.39744,1.28214 0.8375,2.43652 0.68366,0.63906 1.75009,2.06807 2.36986,3.17559 0.61976,1.10752 1.26383,2.01367 1.43125,2.01367 0.185,0 0.22134,-1.71051 0.0926,-4.35958 -0.11652,-2.39776 -0.21231,-6.94575 -0.21297,-10.10662 -10e-4,-5.58696 -0.0187,-5.73822 -0.62959,-5.43034 -0.94849,0.47802 -3.51743,0.38008 -4.77544,-0.18209 -1.48134,-0.66196 -1.84538,-1.39919 -1.67066,-3.3833 0.14089,-1.59982 0.1077,-1.68098 -1.0351,-2.53335 -1.46004,-1.08893 -2.93624,-3.75442 -2.93624,-5.30174 0,-2.47228 2.11768,-3.88551 5.82233,-3.88551 h 2.27457 l 0.36917,-1.30022 c 0.44287,-1.55983 2.55103,-3.60193 4.21489,-4.08281 2.25702,-0.6523 4.47419,0.76077 5.21275,3.32224 0.2055,0.71277 0.42241,1.46055 0.48201,1.66173 0.0712,0.24021 0.50432,0.30527 1.26176,0.18952 2.5474,-0.38928 6.00661,1.40474 6.53559,3.38949 0.36339,1.36342 -0.41373,3.15489 -2.07088,4.7739 -1.22032,1.19225 -1.48211,1.63066 -1.31251,2.19806 0.36677,1.22698 0.29335,3.47876 -0.12945,3.97083 -0.96329,1.12108 -2.00888,1.47994 -4.31196,1.47994 -1.26462,0 -2.45782,-0.14927 -2.65157,-0.33172 -0.36279,-0.34163 -0.93315,13.89211 -0.6998,17.46409 l 0.10991,1.68263 0.54999,-0.9178 c 0.74309,-1.24004 2.17544,-2.70818 3.29615,-3.37851 0.91939,-0.54991 0.92156,-0.55897 0.70038,-2.91185 -0.63986,-6.80698 2.95277,-11.43041 10.10645,-13.00614 3.25448,-0.71686 10.82777,-0.52096 11.79717,0.30518 0.91182,0.77707 0.87515,2.21787 -0.14043,5.51809 -0.95815,3.11353 -1.68084,4.53082 -3.61556,7.09035 -1.53385,2.02923 -2.70664,2.99196 -4.98832,4.09491 -2.03498,0.98369 -5.8654,1.18838 -8.44978,0.45151 l -1.89846,-0.54128 -1.19245,1.18886 c -2.90393,2.89526 -5.84613,8.08714 -6.20293,10.94585 -0.19936,1.59733 -0.17044,1.69185 0.56358,1.84193 0.42555,0.0869 4.14267,0.19744 8.26029,0.24539 6.5199,0.0759 7.60008,0.15721 8.36561,0.62962 l 0.87902,0.54244 v 7.33538 c 0,6.92747 -0.0361,7.36942 -0.64976,7.94726 -0.45722,0.43058 -1.08292,0.61188 -2.1117,0.61188 -1.40694,0 -1.46194,0.0344 -1.46194,0.9154 0,2.24694 -4.54353,23.15714 -4.54353,23.15714 l -2.30018,4.93417 c -15.60993,0.16587 -22.45082,0.26289 -54.02911,0.40321 z m -4.70048,-6.59197 c 0.44434,-0.18391 0.48267,-0.39409 0.218,-1.19534 -0.17662,-0.5347 -0.44553,-2.00471 -0.59757,-3.2667 -0.15204,-1.26198 -0.81386,-4.08422 -1.47072,-6.27166 -0.65685,-2.18743 -1.26542,-4.69993 -1.35235,-5.58332 l -0.15807,-1.60616 h -2.08164 c -1.14491,0 -2.07958,0.10332 -2.07708,0.22946 0.002,0.1262 0.59267,1.24545 1.31144,2.48723 0.71878,1.24179 1.22841,2.33168 1.13251,2.42198 -0.0958,0.0903 -0.17438,-0.005 -0.17438,-0.21332 0,-0.25192 -0.24238,-0.30511 -0.72842,-0.15984 -0.67659,0.20223 -0.69393,0.17648 -0.24365,-0.3618 0.44482,-0.53176 0.43908,-0.54584 -0.0695,-0.17076 -0.30886,0.22776 -0.74044,0.30336 -0.97464,0.17072 -0.27451,-0.15546 -0.25127,-0.0329 0.0671,0.35348 0.26803,0.32534 -0.28049,-0.005 -1.21892,-0.73509 -1.64292,-1.27738 -2.44217,-2.10036 -3.19564,-3.29056 -0.33907,-0.53559 -2.14178,-0.56215 -43.922516,-0.6472 l -43.568935,-0.0887 -0.984912,1.34805 c -1.501472,2.05507 -4.909405,4.16456 -6.602912,4.08717 -0.814108,-0.0372 -0.711111,-0.38141 0.503398,-1.68226 0.589567,-0.63148 1.535065,-1.71297 2.101112,-2.4033 l 1.029178,-1.25518 -2.790743,0.0315 -2.790746,0.0315 -0.896266,2.60044 c -0.492948,1.43026 -1.222056,3.90832 -1.620241,5.50683 -0.398187,1.59852 -1.292679,4.23499 -1.987759,5.85884 -0.695079,1.62385 -1.26378,3.09271 -1.26378,3.26415 0,0.19091 1.479058,0.33229 3.817314,0.36488 2.099522,0.0292 6.156435,0.15252 9.01536,0.2739 6.736776,0.28598 100.867688,0.19438 101.576128,-0.0989 z m 58.02057,-5.22686 c 0.22361,-0.84134 0.54411,-2.28686 0.71222,-3.21233 0.16812,-0.92545 0.60021,-2.99051 0.96018,-4.58903 0.55472,-2.46328 0.78999,-3.9928 1.42723,-9.27889 0.0643,-0.53391 -0.47958,-0.55808 -11.77653,-0.52313 -6.51419,0.0202 -11.86665,0.0656 -11.89434,0.10084 -0.0862,0.10996 1.05841,7.91406 1.46778,10.0071 0.4305,2.20112 1.86753,7.9693 2.1708,8.71354 0.16905,0.41484 1.22591,0.46456 8.35982,0.39322 l 8.16628,-0.0816 z M 69.187777,170.92154 c 0,-5.27335 0.09493,-12.05585 0.210953,-15.07221 L 69.609686,150.365 39.18509,150.3526 8.7604996,150.3402 v 14.91133 14.91133 l 0.893413,0.12745 c 0.4913774,0.0701 14.0875154,0.14808 30.2136394,0.17329 l 29.320225,0.0458 z m -46.599214,5.24582 c -1.190872,-2.68398 -1.506634,-18.4851 -0.4622,-23.12891 0.402004,-1.78739 0.491569,-1.91898 1.249437,-1.83561 0.794674,0.0874 0.823407,0.17529 1.079855,3.30213 0.415084,5.06106 0.0594,18.78969 -0.537821,20.75874 -0.273214,0.9008 -0.577172,1.71354 -0.675467,1.8061 -0.0983,0.0926 -0.392505,-0.31354 -0.653804,-0.90245 z M 61.959239,166.106 c -0.94747,-0.51968 -1.623522,-2.07664 -1.396507,-3.21619 0.475878,-2.38873 3.65747,-2.67309 4.885588,-0.43665 0.72052,1.31209 0.605435,2.08666 -0.458966,3.089 -0.974598,0.91778 -2.027578,1.11371 -3.030115,0.56384 z m 59.206521,8.59069 c -0.0462,-3.1129 -0.1741,-9.85876 -0.28436,-14.99083 l -0.20049,-9.33101 -23.634858,-0.01 -23.634864,-0.01 v 15.07831 15.07832 l 23.919228,-0.0784 23.919234,-0.0784 z m -42.906394,-9.15453 c -0.880925,-0.82955 -1.407517,-2.77359 -0.628485,-2.3202 0.17813,0.10375 0.241907,-0.009 0.143209,-0.24977 -0.291405,-0.71512 1.230494,-2.11907 2.297094,-2.11907 1.8348,0 3.194784,2.74837 2.030487,4.10338 -0.566676,0.6595 -1.92636,1.47994 -2.452642,1.47994 -0.242011,0 -0.86736,-0.40242 -1.389663,-0.89428 z m 57.246814,14.4319 c 0.0654,-0.29446 0.0771,-7.01917 0.0259,-14.94379 l -0.0933,-14.40841 -5.04615,-0.20491 c -2.77538,-0.11273 -5.18218,-0.12572 -5.34844,-0.029 -0.34427,0.20035 -0.41744,22.4704 -0.0891,27.13858 l 0.20976,2.98287 h 5.11114 c 4.60582,0 5.12295,-0.053 5.23028,-0.53538 z m 59.66251,-9.14768 c 0.0498,-2.30364 -0.0315,-4.30356 -0.18095,-4.44429 -0.33103,-0.31173 -23.4814,-0.37675 -28.86181,-0.0811 l -3.86066,0.21216 0.097,4.32119 0.097,4.32119 16.30933,-0.0704 16.30933,-0.0704 z M 28.377182,144.016 c -0.02115,-0.9734 -0.09423,-1.81881 -0.16244,-1.87869 -0.06821,-0.0599 -3.523047,-0.16227 -7.677421,-0.22754 l -7.55341,-0.11867 v 1.9069 1.9069 l 2.192925,0.11042 c 1.20611,0.0607 4.678241,0.10149 7.715849,0.0904 l 5.522922,-0.0201 -0.03842,-1.76982 z m 81.216718,-3.17821 c 0.17366,-3.98987 0.13156,-5.15506 -0.19329,-5.34918 -0.56667,-0.33864 -11.022283,-0.31613 -11.594452,0.025 -0.377535,0.22506 -0.421232,1.11685 -0.248203,5.06554 0.115496,2.63583 0.29376,4.92003 0.396151,5.07605 0.102824,0.15652 2.702804,0.28363 5.801954,0.28363 h 5.61582 l 0.22202,-5.10101 z m 55.54509,4.5058 c 0.35717,-0.33634 -0.0186,-1.94292 -0.40217,-1.71966 -0.14897,0.0867 -0.80256,-0.38352 -1.45243,-1.04493 -1.09879,-1.11835 -1.52311,-1.77007 -0.92629,-1.42272 0.14039,0.0817 0.25527,-0.11008 0.25527,-0.42627 0,-0.31618 -0.061,-0.51741 -0.13555,-0.44721 -0.0745,0.0702 -0.44525,-0.0128 -0.8238,-0.18442 -0.66623,-0.30206 -0.66821,-0.29693 -0.0622,0.16057 0.70684,0.53362 0.55362,0.89846 -0.25467,0.60639 -0.29358,-0.10613 -0.55573,-0.45351 -0.58254,-0.77204 -0.0268,-0.31854 -0.0633,-0.75123 -0.0811,-0.96157 -0.0179,-0.21033 -0.17869,-0.48356 -0.35738,-0.60718 -0.18265,-0.12637 -0.0715,-0.22682 0.2541,-0.22945 1.32095,-0.0108 3.08499,1.06015 5.32622,3.23324 1.3079,1.26814 2.52447,2.22047 2.70347,2.11627 0.55491,-0.32294 0.35858,-2.64913 -0.33792,-4.00401 -0.36485,-0.70976 -1.37017,-1.91305 -2.23404,-2.67397 -2.01205,-1.7723 -3.99406,-2.34744 -8.08967,-2.34744 h -3.0721 l 0.20922,1.67633 c 0.67503,5.40866 4.97965,10.03848 8.80422,9.46938 0.53048,-0.0789 1.09724,-0.26853 1.25948,-0.42131 z m 32.03317,-0.21859 c 1.71595,-0.65733 3.17101,-1.8281 4.03946,-3.25022 0.78441,-1.28449 2.1507,-5.82633 2.1507,-7.14935 0,-0.67127 -0.0752,-0.68915 -2.19292,-0.52196 -5.06968,0.4002 -8.11531,1.48991 -10.09323,3.61128 -1.63487,1.75344 -2.24168,4.77627 -1.00337,4.9983 0.28477,0.0511 1.23504,-0.51351 2.1117,-1.25461 0.87666,-0.74111 2.36144,-1.71307 3.29953,-2.15993 l 1.70562,-0.81246 v 1.14667 c 0,1.03438 -0.24313,1.36055 -2.48215,3.33022 -1.50189,1.3212 -2.39049,2.32324 -2.25004,2.53723 0.28439,0.43331 3.07818,0.15175 4.7147,-0.47517 z M 98.7173,130.67227 c 0.554947,-0.48818 1.008232,-1.07328 1.007325,-1.30023 -0.0022,-0.74251 -1.437112,-2.66591 -2.579557,-3.45963 -1.247581,-0.86676 -3.689051,-1.07316 -4.670022,-0.39478 -0.501576,0.34686 -0.511316,0.53343 -0.104815,2.00636 0.963317,3.49025 4.157289,5.07453 6.347036,3.14828 z m 14.89464,-0.42212 c 0.84006,-0.72397 2.03337,-2.90779 2.03337,-3.72117 0,-0.50069 -0.25045,-0.54092 -2.57752,-0.41407 -2.18862,0.11931 -2.76455,0.27118 -3.81731,1.0066 -1.38051,0.96439 -3.17931,2.67248 -3.06311,2.90866 0.15835,0.32189 1.56838,0.67657 3.28525,0.82637 0.98276,0.0858 1.84936,0.21177 1.92578,0.28001 0.26036,0.23254 1.48359,-0.2573 2.21354,-0.8864 z m 64.04183,-2.37547 c 1.29341,-0.85852 1.55065,-0.92804 2.13752,-0.57771 2.30694,1.37721 4.89978,1.9355 5.22962,1.12606 0.1036,-0.25436 -0.0339,-1.26442 -0.30572,-2.24454 -0.27179,-0.98015 -0.46359,-1.78793 -0.42619,-1.7951 0.85152,-0.16314 2.68546,-1.44018 3.20494,-2.23173 0.61024,-0.9298 0.6316,-1.09413 0.19565,-1.50467 -0.28912,-0.27226 -1.11779,-0.46981 -2.02503,-0.48272 -1.46457,-0.0208 -1.62176,0.0631 -3.39653,1.81396 -2.18841,2.15893 -3.34077,2.53425 -5.12877,1.67045 -0.63961,-0.30901 -1.54944,-1.09778 -2.02184,-1.75282 -0.47242,-0.65506 -1.23268,-1.31478 -1.68946,-1.46606 -1.14726,-0.37994 -3.20317,0.017 -3.20317,0.6184 0,0.86704 1.27089,2.17134 2.75641,2.82891 0.80685,0.35716 1.467,0.79445 1.467,0.97178 0,0.17734 -0.16879,0.2242 -0.37508,0.10418 -0.22976,-0.13372 -0.28699,-0.084 -0.14772,0.12813 0.12505,0.19054 0.0229,1.00342 -0.22685,1.8064 -0.24983,0.80299 -0.38483,1.64794 -0.30005,1.87768 0.25496,0.69072 2.61806,0.19617 4.25527,-0.89056 z m -71.52612,-4.4986 c 1.15645,-3.44228 1.20398,-5.88397 0.14592,-7.49614 -0.8964,-1.36582 -1.43782,-1.4321 -2.49322,-0.3052 -1.22745,1.31059 -1.88608,3.21154 -1.71013,4.93582 0.1905,1.86689 2.1027,5.54246 2.88346,5.54246 0.15106,0 0.67935,-1.20463 1.17397,-2.67694 z m 74.30758,-3.61658 c 1.12976,-1.06388 0.3165,-4.41421 -1.07151,-4.41421 -0.63255,0 -2.10032,1.36091 -2.43868,2.26114 -0.38545,1.02547 1.12954,2.5391 2.61678,2.61443 0.21059,0.0108 0.61262,-0.19695 0.89341,-0.46136 z M 28.984143,118.7932 c 0.976473,-0.11987 1.219411,-0.27956 1.223927,-0.80445 0.0064,-0.7492 -4.232126,-14.42615 -4.524282,-14.71564 -0.105645,-0.10464 -2.713945,-0.27464 -5.796223,-0.37767 -5.282413,-0.17656 -5.604143,-0.15524 -5.604143,0.37139 0,0.30729 -0.642916,1.01654 -1.428702,3.69332 -0.785786,2.67679 -1.858728,6.40968 -2.384311,8.29534 l -0.9556055,3.42845 1.9782105,0.11227 c 2.988991,0.16973 16.102441,0.16745 17.491129,-0.003 z m 85.036767,1.75298 c -0.3541,-0.21549 -0.37106,-0.29784 -0.062,-0.30125 0.24776,-0.002 0.32772,-0.1643 0.19157,-0.38709 -0.12854,-0.21034 -0.10858,-0.27519 0.0443,-0.14412 0.23067,0.19768 0.53772,1.14906 0.36589,1.13372 -0.0289,-0.002 -0.27176,-0.13814 -0.53979,-0.30126 z m 0.97464,-0.53696 c 0,-0.16825 0.2193,-0.47731 0.48732,-0.68678 0.27183,-0.21244 0.48731,-0.24557 0.48731,-0.075 0,0.16826 -0.21928,0.47731 -0.48731,0.68679 -0.27184,0.21245 -0.48732,0.24558 -0.48732,0.075 z m -0.32487,-1.16373 c 0,-0.26234 0.14619,-0.39188 0.32487,-0.28788 0.17868,0.10397 0.32488,0.31861 0.32488,0.47696 0,0.15833 -0.1462,0.28787 -0.32488,0.28787 -0.17868,0 -0.32487,-0.21463 -0.32487,-0.47695 z m 72.30181,-11.42938 c -0.10504,-0.15993 -0.70785,-0.21177 -1.33973,-0.11517 -0.6553,0.10014 -1.47003,0.0138 -1.89642,-0.20117 -0.50789,-0.25598 -1.4655,-0.31351 -2.98735,-0.17951 -4.84769,0.42687 -11.6913,0.5065 -13.61055,0.15838 -1.07209,-0.19446 -2.77936,-0.7683 -3.79391,-1.27521 -3.81464,-1.90592 -7.43779,-6.82398 -8.07112,-10.955739 -0.36512,-2.38198 -0.3867,-74.788912 -0.0235,-78.692614 0.19904,-2.138948 0.46815,-3.0764 1.35765,-4.729248 1.56362,-2.9055228 4.09556,-5.3789423 6.74871,-6.592746 l 2.15775,-0.9871618 9.09658,-0.1876415 c 5.00312,-0.103199 11.51158,-0.095127 14.46323,0.017934 4.97477,0.1905659 5.49668,0.2669573 7.14731,1.0461405 3.12635,1.4757913 4.92743,3.0103232 6.45216,5.4972878 1.80965,2.951667 1.70726,0.610649 1.85423,42.394919 0.0913,25.956866 0.0237,39.547 -0.20543,41.301229 -0.47877,3.665277 -2.22236,7.03715 -4.7251,9.13775 -3.13062,2.62758 -5.92369,3.74467 -10.4652,4.18557 -0.76881,0.0746 -1.52623,0.21043 -1.68317,0.30176 -0.15694,0.0914 -0.37122,0.0353 -0.47617,-0.12471 z m 2.20049,-4.31945 c 3.49406,-0.37274 5.3857,-1.22761 7.55988,-3.416464 1.94598,-1.959079 3.01337,-4.22943 3.37642,-7.181647 0.28411,-2.310255 0.14516,-72.534928 -0.15136,-76.492956 -0.23014,-3.072015 -2.23996,-5.961724 -5.34014,-7.6780044 l -1.48911,-0.8243907 h -13.32 c -13.03861,0 -13.34774,0.013979 -14.6341,0.6625656 -1.69262,0.8534067 -3.76131,2.9753745 -4.91946,5.0461175 l -0.91374,1.633757 -0.0409,36.865168 c -0.0225,20.275844 0.062,38.339669 0.18789,40.141839 0.20486,2.933357 0.35504,3.517145 1.43344,5.571907 1.54224,2.938588 4.16736,5.018908 7.19132,5.698938 1.52161,0.34218 17.7951,0.32145 21.0599,-0.0268 z m -12.64437,-6.133954 c -4.76585,-0.750964 -8.44548,-3.906212 -10.64718,-9.12989 -0.75652,-1.794874 -0.77359,-5.763377 -0.0335,-7.807536 1.15305,-3.806176 0.20961,-4.101562 5.55557,-8.765305 l -0.15105,-4.956108 c -0.0831,-2.72586 -0.14975,-7.330928 -0.14818,-10.233486 l 0.002,-5.27738 h -0.81475 c -0.4481,0 -0.86406,0.139369 -0.92436,0.309711 -0.0603,0.170341 0.16012,0.395497 -1.28377,0.500349 -2.46158,0.178756 -2.66909,0.146317 -3.32866,-0.520363 -0.84454,-0.853666 -0.91197,-2.191137 -0.14677,-2.911716 0.48638,-0.458018 1.03994,-0.501296 4.38584,-0.342874 l 2.37805,0.181307 V 44.01168 40.013948 l -0.8934,0.186922 c -0.49138,0.102802 -0.64556,0.350067 -2.11622,0.549456 -3.09794,0.420025 -4.00583,0.155373 -4.67339,-1.362316 -0.37709,-0.857269 -0.33976,-0.974491 0.53627,-1.684087 0.90623,-0.734047 1.06454,-0.756124 4.21658,-0.588034 1.80126,0.09605 2.03626,0.218364 2.29581,0.271796 0.34968,0.07198 0.45812,-0.180199 0.41864,-0.97363 -0.0293,-0.588923 -0.0835,-3.972669 -0.12046,-7.519432 -0.0545,-5.222623 0.0346,-6.778284 0.46804,-8.1824 1.00187,-3.245343 5.15407,-5.217113 8.62903,-5.239785 4.51877,-0.0295 9.73068,3.621242 9.73068,8.945218 v 1.979365 l 1.08217,-0.212187 c 2.94147,-0.19638 3.24397,-0.163476 4.06096,0.441697 0.64229,0.475763 0.88275,0.929314 0.88275,1.664993 0,1.632769 -0.4735,1.787744 -4.70207,1.538938 l -1.64869,-0.22034 v 2.751856 c 0,1.51352 -0.0905,3.177717 -0.20098,3.698194 l -0.201,0.94634 1.91042,0.08619 c 3.99369,0.08591 4.00805,0.08887 4.50562,0.927512 0.44892,0.756681 0.44893,0.925961 3e-5,1.682642 -0.49499,0.834408 -0.53039,0.842031 -4.30463,0.927516 l -1.70946,0.08619 v 3.322847 c 0,2.747776 0.0889,3.35498 0.51389,3.508541 0.28264,0.102134 -0.27139,0.1857 1.33067,0.1857 2.73258,0 2.96214,0.05008 3.70952,0.80951 0.87248,0.886521 0.97087,1.3717 0.46038,2.269951 -0.30373,0.534435 -0.71285,0.591758 -4.22341,0.591758 h -1.79105 v 3.549324 3.549326 c 1.71173,-0.08416 4.37124,-0.378711 5.37613,0.549722 0.72754,0.68512 0.87762,2.416459 0.25989,2.998164 -2.22773,0.481328 -3.38713,0.367122 -5.63602,0.367122 l -0.002,2.829898 c -0.0591,2.290346 -0.15114,4.193806 -0.26267,6.712165 5.31828,3.21374 7.19462,9.5829 5.35634,15.125795 -0.85903,2.590181 -1.71272,3.990307 -3.90465,6.329563 -4.02353,4.293929 -7.69413,4.571418 -14.19694,3.546759 z M 189.05365,86.82001 c 0.68231,-2.2949 0.33137,-6.142292 -0.74007,-8.113306 -1.01295,-1.863373 -1.37476,-2.601344 -3.17675,-2.872692 -0.94904,-0.142908 -1.27663,-0.361358 -1.48393,-0.989507 -0.1463,-0.44336 -0.59004,-13.249963 -0.59196,-27.531239 l -0.003,-25.965961 -0.85601,-0.879836 c -1.46097,-1.501679 -4.07225,-1.063161 -5.11621,0.859176 -0.25913,0.477135 -0.48069,8.32987 -0.36291,27.457667 l 0.16123,26.18209 c -2.07639,-0.175414 -1.89053,0.995627 -3.58633,2.467762 -1.32125,2.081326 -2.10272,5.572859 -2.10272,5.572859 -0.13744,2.746343 0.41851,3.915359 2.28519,6.243583 1.87763,2.341903 3.41833,2.923225 7.33635,2.977166 3.73434,-0.522683 7.20736,-1.948664 8.23781,-5.407762 z M 164.6002,61.866405 c -1.08214,-1.063657 -1.10037,-1.709023 -0.0755,-2.674096 0.66913,-0.630125 1.10034,-0.748154 2.68024,-0.733665 1.03555,0.0095 2.39085,0.181588 3.01174,0.382419 1.14433,0.370135 -0.3101,0.362605 -0.43224,2.320511 -0.0479,0.768469 -0.73438,1.562893 -2.75418,1.562893 -1.28186,0 -1.71131,-0.151646 -2.43001,-0.858062 z m 0.30791,-32.511058 c -1.025,-0.759255 -1.09747,-1.759907 -0.19358,-2.673525 0.55541,-0.561424 1.0176,-0.669556 2.8618,-0.669556 2.67832,0 1.86603,0.377254 2.07519,2.082441 0.14243,1.161069 1.52958,1.304541 0.74446,1.585643 -1.55974,0.558432 -4.53293,0.382351 -5.48787,-0.325003 z M 45.060698,99.342944 31.704719,98.501814 29.639036,96.025874 c -0.666062,-0.527812 -1.743437,-0.312399 -3.148472,-0.562054 -1.174762,-0.208733 -3.123251,0.141178 -3.123251,0.02002 0,-0.121168 -5.249148,-0.282293 -5.792039,-0.282293 -1.337447,0 -1.677259,-7.626015 -2.162742,-8.991038 -0.308013,-0.866049 -1.297528,-2.401312 -1.309707,-28.152466 -0.01764,-37.2763 3.432562,-35.053339 5.291633,-36.601154 3.65506,-3.043107 8.367993,-2.568138 22.663781,-2.450191 23.636598,0.195015 19.02099,0.189952 57.828246,0.06348 17.916305,-0.05839 31.295425,0.01616 31.893265,0.177675 0.56643,0.153041 6.04817,3.745814 6.2546,3.980047 0.27815,0.315611 0.39411,9.598687 0.44789,35.855228 0.0633,30.924397 0.67129,33.761527 -1.20044,36.433024 -2.68604,3.828884 -16.54366,4.20426 -17.39527,4.183922 -6.08502,-0.149694 -20.93806,-0.395985 -29.631657,-0.395985 -8.693591,0 -15.637855,-0.112277 -15.431693,-0.249494 0.20616,-0.137228 0.0093,-0.141645 -0.437358,-0.0093 -9.988822,1.014935 -20.814479,0.322612 -29.325124,0.297606 z m 19.172691,-5.609732 c 1.295451,-0.09967 2.355365,-0.322303 2.355365,-0.494764 0,-0.199333 -0.684859,-0.246174 -1.879782,-0.128557 -1.033879,0.101756 -2.217564,0.101875 -2.630413,1.62e-4 -0.640032,-0.157603 -0.721351,-0.322709 -0.551908,-1.120514 0.109298,-0.514619 0.379261,-1.058757 0.599926,-1.209191 0.285622,-0.194718 0.252325,-0.229292 -0.115568,-0.119987 -0.284231,0.08441 -0.722814,0.01561 -0.974634,-0.152977 -0.362564,-0.242694 -0.339528,-0.270642 0.110682,-0.134258 0.312694,0.0947 0.568536,0.07122 0.568536,-0.05226 0,-0.123492 0.715177,-0.46373 1.589281,-0.756075 0.874105,-0.292356 2.518799,-1.148346 3.654877,-1.902202 10.769888,-7.146472 16.278028,-9.960467 22.532902,-11.511618 3.126976,-0.77546 4.552755,-0.96845 7.204232,-0.97514 3.590435,-0.0091 3.712025,0.03247 6.115755,2.08851 0.17295,0.849096 0.22523,1.358341 -0.16245,1.947921 -0.2528,0.260384 -0.76098,0.110772 -0.76098,0.110772 -1.88901,-0.299155 -5.600264,-0.278955 -9.310223,0.233524 -4.438616,0.613147 -7.24434,1.702186 -13.600919,5.279192 -4.776624,2.687935 -6.737493,4.001284 -9.1308,6.115617 -1.285836,1.135963 -2.47193,1.987362 -2.63576,1.892014 -0.163829,-0.09539 -0.29787,-0.0093 -0.29787,0.190048 0,0.262085 0.47553,0.302693 1.705608,0.145658 1.579372,-0.201622 29.864826,-0.230761 34.140154,-0.03515 1.3389,0.06128 1.94438,-0.03191 2.06051,-0.316846 0.0905,-0.221974 0.47988,-0.501947 0.86542,-0.622177 0.68422,-0.21337 0.68155,-0.223257 -0.11126,-0.414045 -0.71645,-0.172425 -0.60159,-0.261159 0.97464,-0.752803 0.98276,-0.306543 2.37161,-0.834355 3.08633,-1.172917 1.76922,-0.838066 7.6591,-2.687691 7.97437,-2.504223 0.13998,0.08152 0.30357,0.0363 0.3635,-0.100483 0.25459,-0.580839 5.74207,-1.971139 8.39335,-2.126533 2.0641,-0.120971 2.83916,-0.286228 3.06909,-0.654391 0.18228,-0.291824 0.33393,-7.910406 0.37212,-18.695676 0.0355,-10.011724 0.12973,-22.74627 0.20947,-28.29899 0.0797,-5.552719 0.0584,-10.408631 -0.0473,-10.790915 L 129.77745,25.998877 94.528201,25.89711 C 67.811579,25.819976 58.80711,25.702175 57.329692,25.410457 55.784777,25.105408 54.167367,25.100088 49.532623,25.384817 46.316332,25.5824 39.298971,25.7803 33.938488,25.82459 l -9.746337,0.08053 -0.08387,31.947313 c -0.07815,29.76344 -0.04614,31.973444 0.468191,32.329721 0.516379,0.357698 0.514883,0.38242 -0.02315,0.38242 -0.478836,0 -0.537276,0.16661 -0.348765,0.994293 0.124552,0.546856 0.280141,1.081004 0.345757,1.187002 0.243182,0.392837 6.725073,0.71018 15.560866,0.761844 5.003119,0.02925 10.558529,0.189158 12.345358,0.355351 3.133963,0.291501 6.82953,0.250754 11.776821,-0.129829 z M 43.684866,91.886964 c -2.933696,-0.137829 -5.685362,-0.724056 -5.685362,-1.211248 0,-0.259668 -0.337222,-0.403707 -0.893414,-0.38161 -0.54966,0.02185 -0.67466,0.08927 -0.324877,0.175398 0.312694,0.0769 0.568536,0.249608 0.568536,0.383679 0,0.329913 -10.854796,0.602022 -10.991699,0.275544 -0.05957,-0.142027 -0.315405,-0.258234 -0.568537,-0.258234 -0.891825,0 -0.447214,-0.874063 0.595608,-1.170916 1.770526,-0.503992 2.517803,-0.618026 2.517803,-0.384213 0,0.122752 1.348893,0.174923 2.997538,0.11593 1.773781,-0.06348 3.362335,0.03504 3.891097,0.241283 0.491463,0.19169 2.029923,0.379251 3.418804,0.416797 1.869237,0.05053 3.012455,0.268639 4.400766,0.839639 1.031538,0.424266 1.969624,0.860002 2.08463,0.9683 0.115004,0.108345 0.14819,0.170888 0.07374,0.139067 -0.07444,-0.03179 -1.012537,-0.09909 -2.084635,-0.149416 z m 9.68544,-20.836678 c -0.681993,-0.408365 -1.076178,-1.887274 -1.076178,-4.037624 0,-2.53709 0.154566,-2.965803 1.264035,-3.506082 0.712328,-0.346881 1.032833,-0.350729 1.862136,-0.02237 1.167039,0.46209 1.42212,1.265549 1.42212,4.479391 0,1.69539 -0.126014,2.221969 -0.649756,2.715173 -0.651444,0.613461 -2.09987,0.80412 -2.822357,0.37151 z M 37.049798,64.68585 c -1.139131,-0.902628 -1.223555,-1.35505 -0.45813,-2.455122 0.735154,-1.056565 4.576649,-4.095287 5.177185,-4.095287 0.694277,0 2.078453,1.395685 2.078453,2.095737 0,0.740697 -4.513623,5.248365 -5.254337,5.247408 -0.298989,-3.06e-4 -0.993415,-0.357119 -1.543171,-0.792736 z m 31.99683,0.141271 c -1.412761,-1.046481 -4.082263,-4.224286 -4.082263,-4.859572 0,-0.705664 1.563342,-2.138042 2.333526,-2.138042 0.304335,0 1.447263,0.77936 2.539837,1.73191 2.986315,2.603593 3.569819,4.014467 2.171792,5.251268 -0.948572,0.839176 -1.8436,0.843535 -2.962892,0.01444 z M 50.832179,60.1399 c -2.99755,-0.92749 -3.691532,-1.324778 -6.271436,-3.590239 -1.431987,-1.257455 -3.177581,-4.592815 -3.628069,-6.93227 -0.435886,-2.263607 -0.07671,-4.540005 1.097339,-6.954965 0.95881,-1.972195 4.145445,-5.187975 4.87847,-4.923087 0.281321,0.101648 0.470462,0.03416 0.427361,-0.152507 -0.04252,-0.184182 0.653653,-0.695492 1.547068,-1.136245 1.497357,-0.738701 1.92926,-0.800104 5.522923,-0.785211 3.656877,0.01514 4.029431,0.07432 6.01024,0.954424 1.161438,0.516048 2.700651,1.347993 3.420473,1.848769 2.255455,1.569095 4.376595,6.211983 4.376595,9.579767 0,4.913811 -4.435823,10.403106 -9.626656,11.912908 -2.447111,0.711763 -5.782969,0.788621 -7.754308,0.178656 z m 7.845297,-4.779594 c 2.471975,-1.221697 3.193661,-1.885898 4.242412,-3.904482 0.664467,-1.278926 0.860934,-2.104345 0.846428,-3.556115 -0.03239,-3.242844 -1.603367,-5.76305 -4.649753,-7.459307 -1.320673,-0.735366 -1.775892,-0.814029 -4.710728,-0.814029 -2.764328,0 -3.456681,0.104539 -4.642988,0.701047 -2.151022,1.081594 -3.806062,2.812446 -4.239604,4.433812 -1.138236,4.256777 0.305605,8.056668 3.86536,10.172814 1.620124,0.963107 2.997882,1.305146 5.390338,1.338193 1.635523,0.02258 2.341995,-0.142663 3.898535,-0.911933 z M 33.376843,49.875791 c -2.453296,-0.172334 -3.499285,-0.766031 -3.499285,-1.986178 0,-1.506176 0.994968,-1.991573 4.082331,-1.991573 3.638829,0 4.039615,0.212963 4.039615,2.146481 0,1.40199 -0.06559,1.526619 -0.893414,1.697432 -1.42659,0.294364 -1.43812,0.29478 -3.729247,0.133838 z m 38.003859,-0.522262 c -0.573233,-0.602218 -0.761745,-2.393487 -0.319904,-3.039774 0.140915,-0.206118 1.369831,-0.379035 3.000147,-0.422144 3.964721,-0.10483 4.152292,-0.07426 4.741857,0.773074 0.445155,0.639773 0.468351,0.914589 0.140185,1.66066 -0.493293,1.121476 -0.765152,1.214858 -4.194998,1.440967 -2.508878,0.165391 -2.857635,0.122639 -3.367287,-0.412783 z M 41.085844,37.284616 c -0.357367,-0.184015 -1.636573,-1.243084 -2.842681,-2.353489 -2.566301,-2.362659 -2.788362,-3.191761 -1.193365,-4.45561 0.549756,-0.435617 1.121411,-0.792032 1.270338,-0.792032 0.473883,0 3.439476,2.34338 4.502527,3.557848 1.19087,1.360492 1.265568,2.032026 0.378447,3.402174 -0.684786,1.057648 -1.076041,1.176232 -2.115266,0.641109 z m 25.2834,-0.641109 c -0.141823,-0.21033 -0.260097,-0.474199 -0.262833,-0.586376 -0.0025,-0.112172 -0.13806,-0.318681 -0.30072,-0.458902 -0.176262,-0.151946 -0.183881,-0.06955 -0.01884,0.203957 0.238694,0.395598 0.20106,0.40098 -0.27279,0.03903 -1.096896,-0.837876 -0.657778,-1.726204 1.968122,-3.981465 1.384792,-1.189334 2.780288,-2.165537 3.101105,-2.169342 0.771637,-0.0092 2.17816,1.339086 2.17816,2.087898 0,0.326127 -1.076639,1.640255 -2.39253,2.920291 -2.341343,2.277539 -3.421283,2.802683 -3.999659,1.944915 z M 53.073725,32.451656 c -0.815514,-0.319222 -1.221736,-2.604728 -0.786188,-4.423291 0.278839,-1.164245 0.656347,-1.814891 0.656347,-1.131229 0,0.206241 0.148581,0.288506 0.330178,0.182818 0.181597,-0.105682 0.246067,-0.32032 0.143264,-0.476959 -0.102801,-0.156636 -0.06863,-0.302364 0.07592,-0.323838 1.243693,-0.184754 1.946356,-0.154621 2.277398,0.09766 0.571544,0.435572 0.818987,2.602466 0.517338,4.530408 -0.258691,1.653397 -0.282982,1.683762 -1.397586,1.747085 -0.623876,0.03544 -1.441375,-0.05575 -1.816671,-0.202654 z m 77.553315,60.585192 c 0.42616,-0.160586 0.60834,-0.300693 0.40485,-0.311354 -0.44548,-0.02336 -0.41202,-0.998665 0.0451,-1.314933 0.20803,-0.143947 0.19344,-0.226447 -0.0406,-0.229454 -0.20102,-0.0023 -0.36548,-0.346355 -0.36548,-0.763937 0,-0.479964 0.13444,-0.683842 0.36548,-0.554222 0.20102,0.112738 0,-0.162702 -0.44671,-0.612163 -0.64548,-0.649465 -1.11229,-0.81804 -2.27413,-0.821266 -2.45415,-0.0069 -7.39116,0.874768 -9.51903,1.699746 -3.30978,1.283228 -4.76782,1.699677 -5.15724,1.473021 -0.22255,-0.129516 -0.27903,-0.07817 -0.1426,0.12977 0.13913,0.211983 -0.12241,0.418577 -0.68076,0.537756 -1.69875,0.362566 -2.68907,0.859228 -2.27118,1.138991 0.51764,0.346529 19.08836,0.0023 20.08229,-0.371955 z M 67.175357,18.979877 c 0,0.237872 0.51473,-0.07751 0.622684,0.02415 0.107958,0.101659 -0.08393,0.173965 -0.426403,0.160682 -0.378466,-0.01469 -0.196281,-0.447702 -0.196281,-0.184833 z"
         id="path41"
         sodipodi:nodetypes="cssccssssscssscssscscscsssssssscccscccssccsscssscsscssscsscssssssssssccccsssssscsssssccccssssssscsscscsssscssccssscssscsssssssssssssscsssssscsssssssssssscssssssssscsscsscssssscccsssscsssssssssscsscsssscccssssssccssssscssscssscccccsccssssssssssssscsccccccccsscsssscccccscscccsscccccccssccccccccssssssccssssssscscscscssssscsssssssssssscssssscsssssssssscsssssscsssssssssscsssssssssscsssccccssssscccsscsccssssssssssssscsssssssscsssscsscssccsssscssscsssscccccccccsssssscccsssssssscsscsssscsccsssscsssssscccccccsssccssssccssccscccssssscsssssssssscsssssssssssccssccsssscsscssssssccccssscssssssssccssscscsssscsssssssssssscssssssssscssscsssssscsssscsssssssssssssssssssssssssssssssssssssssssssssssssssscsssssssssssssssssssssscssscssssssssssss" />
    </g>
  </g>
</svg>
